<svg aria-hidden="true" style="position: absolute; width: 0; height: 0; overflow: hidden;" version="1.1" xmlns="http://www.w3.org/2000/svg" xmlns:xlink="http://www.w3.org/1999/xlink">
<defs>
<symbol id="icon-play_circle" viewBox="0 0 35 32">
<path d="M17.524 28.495c3.657 0 6.705-1.219 9.295-3.657s3.81-5.333 3.81-8.838c0-3.505-1.219-6.552-3.81-8.838-2.59-2.438-5.638-3.657-9.295-3.657s-6.705 1.067-9.295 3.505-3.81 5.333-3.81 8.838c0 3.505 1.219 6.552 3.81 8.838s5.638 3.81 9.295 3.81zM22.705 14.629c0.914 0.61 0.914 1.981 0 2.59l-7.010 4.267c-1.067 0.61-2.286-0.152-2.286-1.371v-8.533c0-1.219 1.371-1.981 2.286-1.371l7.010 4.419z"></path>
<path d="M11.124 30.324c1.981 0.762 4.114 1.219 6.4 1.219s4.419-0.457 6.4-1.219c1.981-0.762 3.657-1.981 5.181-3.352s2.59-3.048 3.505-5.029c0.914-1.981 1.219-3.962 1.219-6.095s-0.457-4.267-1.219-6.095c-0.914-1.829-2.133-3.505-3.657-4.876s-3.2-2.59-5.181-3.352c-1.981-0.762-4.114-1.219-6.4-1.219s-4.419 0.457-6.4 1.219c-1.829 0.762-3.505 1.829-5.029 3.352-1.524 1.371-2.59 3.048-3.505 5.029s-1.219 3.962-1.219 6.095c0 2.133 0.457 4.267 1.219 6.095 0.914 1.981 1.981 3.505 3.505 5.029 1.524 1.371 3.2 2.438 5.181 3.2zM26.667 24.838c-2.59 2.438-5.638 3.657-9.295 3.657s-6.705-1.219-9.295-3.657-3.81-5.333-3.81-8.838c0-3.505 1.219-6.552 3.81-8.838s5.638-3.657 9.295-3.657 6.705 1.219 9.295 3.657c2.59 2.438 3.81 5.333 3.81 8.838 0 3.352-1.219 6.4-3.81 8.838z"></path>
<path fill="#fff" style="fill: var(--color1, #fff)" d="M13.41 20.267c0 1.219 1.371 1.981 2.286 1.371l7.010-4.267c0.914-0.61 0.914-1.981 0-2.59l-7.010-4.267c-0.914-0.914-2.286-0.152-2.286 1.067v8.686z"></path>
</symbol>
<symbol id="icon-right-Big" viewBox="0 0 6 32">
<path d="M0.128 29.504l4.416-12.48c0.128-0.256 0.128-0.64 0.128-1.024s-0.064-0.768-0.128-1.024l-4.416-12.48c-0.064-0.256-0.128-0.64-0.128-1.024s0.064-0.768 0.128-1.024c0.064-0.128 0.128-0.256 0.192-0.32s0.128-0.128 0.192-0.128c0.064 0 0.128 0.064 0.192 0.128s0.128 0.192 0.192 0.32l4.416 12.48c0.256 0.832 0.448 1.92 0.448 3.072s-0.192 2.24-0.448 3.072l-4.416 12.48c-0.064 0.128-0.128 0.256-0.192 0.32s-0.128 0.128-0.192 0.128c-0.064 0-0.128-0.064-0.192-0.128s-0.128-0.192-0.192-0.32-0.128-0.64-0.128-1.024c0-0.384 0.064-0.768 0.128-1.024z"></path>
</symbol>
<symbol id="icon-left-big" viewBox="0 0 6 32">
<path d="M5.632 29.504l-4.48-12.48c-0.128-0.256-0.128-0.64-0.128-1.024s0.064-0.768 0.128-1.024l4.48-12.48c0.064-0.256 0.128-0.64 0.128-1.024s-0.064-0.768-0.128-1.024c-0.064-0.128-0.128-0.256-0.192-0.32s-0.128-0.128-0.192-0.128-0.128 0.064-0.192 0.128c-0.064 0.064-0.128 0.192-0.192 0.32l-4.416 12.48c-0.256 0.832-0.448 1.92-0.448 3.072s0.192 2.24 0.448 3.072l4.416 12.48c0.064 0.128 0.128 0.256 0.192 0.32s0.128 0.128 0.192 0.128c0.064 0 0.128-0.064 0.192-0.128s0.128-0.192 0.192-0.32 0.128-0.64 0.128-1.024c0-0.384-0.064-0.768-0.128-1.024z"></path>
</symbol>
<symbol id="icon-right-medium" viewBox="0 0 32 32">
<path d="M10.4 26.2l9.2-9.4c0.2-0.2 0.2-0.6 0.2-0.8s0-0.6-0.2-0.8l-9.2-9.4c-0.2-0.2-0.4-0.4-0.4-0.8 0-0.2 0.2-0.6 0.4-0.8 0-0.2 0.2-0.2 0.4-0.2s0.2 0 0.4 0 0.2 0 0.4 0 0.2 0.2 0.4 0.2l9.2 9.4c0.4 0.8 0.8 1.6 0.8 2.4s-0.4 1.6-1 2.4l-9.2 9.4c0 0.2-0.2 0.2-0.4 0.2s-0.2 0-0.4 0-0.2 0-0.4 0-0.2-0.2-0.4-0.2c0-0.4-0.2-0.6-0.2-0.8 0-0.4 0.2-0.6 0.4-0.8z"></path>
</symbol>
<symbol id="icon-left-medium" viewBox="0 0 32 32">
<path d="M21.6 26.2l-9.2-9.4c-0.2-0.2-0.2-0.6-0.2-0.8s0.2-0.6 0.4-0.8l9.2-9.4c0-0.2 0.2-0.4 0.2-0.8 0-0.2-0.2-0.6-0.4-0.8 0-0.2-0.2-0.2-0.4-0.2s-0.2 0-0.4 0-0.2 0-0.4 0-0.2 0.2-0.4 0.2l-9 9.4c-0.6 0.8-1 1.6-1 2.4s0.4 1.6 1 2.4l9.2 9.4c0 0.2 0.2 0.2 0.4 0.2s0.2 0 0.4 0 0.2 0 0.4 0 0.2-0.2 0.4-0.2 0.4-0.4 0.4-0.8c-0.2-0.4-0.4-0.6-0.6-0.8z"></path>
</symbol>
<symbol id="icon-right-small" viewBox="0 0 32 32">
<path d="M15.040 13.44c-0.48-0.48-0.48-1.28 0-1.92 0.48-0.48 1.28-0.48 1.92 0l3.2 3.2c0.64 0.64 0.64 1.6 0 2.24l-3.2 3.2c-0.48 0.48-1.28 0.48-1.92 0-0.48-0.48-0.48-1.28 0-1.92l1.12-1.28h-4.16c-0.8 0-1.28-0.64-1.28-1.28 0-0.8 0.64-1.28 1.28-1.28h4.32l-1.28-0.96z"></path>
</symbol>
<symbol id="icon-plus" viewBox="0 0 32 32">
<path d="M18.88 17.28c-0.96 0-1.6 0.64-1.6 1.6v2.4c0 0.8-0.64 1.28-1.28 1.28-0.8 0-1.28-0.64-1.28-1.28v-2.4c0-0.96-0.64-1.6-1.6-1.6h-2.4c-0.8 0-1.28-0.64-1.28-1.28 0-0.8 0.64-1.28 1.28-1.28h2.4c0.96 0 1.6-0.64 1.6-1.6v-2.4c0-0.8 0.64-1.28 1.28-1.28 0.8 0 1.28 0.64 1.28 1.28v2.4c0 0.96 0.64 1.6 1.6 1.6h2.4c0.8 0 1.28 0.64 1.28 1.28 0 0.8-0.64 1.28-1.28 1.28h-2.4z"></path>
</symbol>
<symbol id="icon-left-small" viewBox="0 0 32 32">
<path d="M16.96 18.56c0.48 0.48 0.48 1.28 0 1.92-0.48 0.48-1.28 0.48-1.92 0l-3.2-3.2c-0.64-0.64-0.64-1.6 0-2.24l3.2-3.2c0.48-0.48 1.28-0.48 1.92 0 0.48 0.48 0.48 1.28 0 1.92l-1.28 0.96h4.32c0.8 0 1.28 0.64 1.28 1.28 0 0.8-0.64 1.28-1.28 1.28h-4.32l1.28 1.28z"></path>
</symbol>
<symbol id="icon-Email" viewBox="0 0 32 32">
<path d="M25.333 26.667h-18.667c-2.267 0-4-1.733-4-4v-13.333c0-2.267 1.733-4 4-4h18.667c2.267 0 4 1.733 4 4v13.333c0 2.267-1.733 4-4 4zM6.667 8c-0.8 0-1.333 0.533-1.333 1.333v13.333c0 0.8 0.533 1.333 1.333 1.333h18.667c0.8 0 1.333-0.533 1.333-1.333v-13.333c0-0.8-0.533-1.333-1.333-1.333h-18.667z"></path>
<path d="M16 18.667c-0.267 0-0.533-0.133-0.8-0.267l-12-8c-0.533-0.4-0.667-1.2-0.267-1.867 0.4-0.533 1.2-0.667 1.867-0.267l11.2 7.467 11.2-7.467c0.667-0.4 1.467-0.267 1.867 0.4s0.267 1.467-0.4 1.867l-12 8c-0.133 0-0.4 0.133-0.667 0.133z"></path>
</symbol>
<symbol id="icon-Map" viewBox="0 0 32 32">
<path d="M24 9.333c-0.8 0-1.333-0.533-1.333-1.333s0.533-1.333 1.333-1.333 1.333 0.533 1.333 1.333v0c0 0.8-0.533 1.333-1.333 1.333z"></path>
<path d="M24 18.667c-0.4 0-0.8-0.267-1.067-0.533l-4.667-6.667c0 0 0-0.133-0.133-0.133-0.533-1.067-0.8-2.133-0.8-3.333s0.4-2.267 0.933-3.333c0.533-0.933 1.467-1.867 2.4-2.4 2-1.2 4.667-1.2 6.667 0 1.067 0.533 1.867 1.467 2.4 2.4 0.533 1.067 0.933 2.133 0.933 3.333s-0.267 2.267-0.8 3.333c0 0 0 0.133-0.133 0.133l-4.667 6.667c-0.267 0.267-0.667 0.533-1.067 0.533zM20.533 10l3.467 5.067 3.467-5.067c0.4-0.667 0.533-1.333 0.533-2s-0.267-1.333-0.533-2c-0.4-0.533-0.8-1.067-1.467-1.467-1.2-0.667-2.8-0.667-4 0-0.667 0.4-1.067 0.8-1.467 1.467-0.267 0.667-0.533 1.333-0.533 2s0.133 1.333 0.533 2z"></path>
<path d="M4 28c-0.267 0-0.533 0-0.667-0.133-0.4-0.267-0.667-0.8-0.667-1.2v-17.333c0-0.533 0.267-0.933 0.8-1.2l8-4c0.267-0.133 0.8-0.133 1.067 0l2 1.067c0.667 0.267 0.933 1.067 0.533 1.733-0.267 0.667-1.067 0.933-1.733 0.533l-1.333-0.667-6.667 3.333v14.4l6.133-3.067c0.4-0.133 0.8-0.133 1.2 0l7.467 3.733 6.667-3.333v-1.867c0-0.8 0.533-1.333 1.333-1.333s1.333 0.533 1.333 1.333v2.667c0 0.533-0.267 0.933-0.8 1.2l-8 4c-0.4 0.133-0.8 0.133-1.2 0l-7.467-3.733-7.467 3.733c-0.133 0.133-0.267 0.133-0.533 0.133z"></path>
<path d="M12 24c-0.8 0-1.333-0.533-1.333-1.333v-17.333c0-0.8 0.533-1.333 1.333-1.333s1.333 0.533 1.333 1.333v17.333c0 0.8-0.533 1.333-1.333 1.333z"></path>
<path d="M20 28c-0.8 0-1.333-0.533-1.333-1.333v-6.667c0-0.8 0.533-1.333 1.333-1.333s1.333 0.533 1.333 1.333v6.667c0 0.8-0.533 1.333-1.333 1.333z"></path>
</symbol>
<symbol id="icon-burger-menu" viewBox="0 0 43 32">
<path d="M0 0h42.667v2.133h-42.667v-2.133z"></path>
<path d="M0 14.933h42.667v2.133h-42.667v-2.133z"></path>
<path d="M0 29.867h42.667v2.133h-42.667v-2.133z"></path>
</symbol>
<symbol id="icon-circle-mobile" viewBox="0 0 34 32">
<path fill="#fff" style="fill: var(--color1, #fff)" d="M16.8 0c8.837 0 16 7.163 16 16s-7.163 16-16 16c-8.837 0-16-7.163-16-16s7.163-16 16-16z"></path>
<path fill="#000" style="fill: var(--color2, #000)" d="M20.8 16c0 2.209-1.791 4-4 4s-4-1.791-4-4c0-2.209 1.791-4 4-4s4 1.791 4 4z"></path>
</symbol>
<symbol id="icon-mobile-circle" viewBox="0 0 34 32">
<path fill="#fff" style="fill: var(--color1, #fff)" d="M16.8 0v0c8.8 0 16 7.2 16 16v0c0 8.8-7.2 16-16 16v0c-8.8 0-16-7.2-16-16v0c0-8.8 7.2-16 16-16z"></path>
<path fill="#000" style="fill: var(--color2, #000)" d="M20.8 16c0 2.209-1.791 4-4 4s-4-1.791-4-4c0-2.209 1.791-4 4-4s4 1.791 4 4z"></path>
</symbol>
</defs>
</svg>
