<svg aria-hidden="true" style="position: absolute; width: 0; height: 0; overflow: hidden;" version="1.1" xmlns="http://www.w3.org/2000/svg" xmlns:xlink="http://www.w3.org/1999/xlink">
<defs>
<symbol id="icon-Vector-left" viewBox="0 0 6 32">
<path d="M0.151 29.519l4.426-12.493c0.097-0.273 0.152-0.64 0.152-1.024s-0.054-0.751-0.152-1.024l-4.425-12.495c-0.097-0.274-0.151-0.643-0.151-1.028s0.054-0.754 0.151-1.028c0.047-0.135 0.104-0.242 0.167-0.316s0.13-0.111 0.198-0.111c0.068 0 0.135 0.038 0.198 0.111s0.119 0.181 0.167 0.316l4.425 12.49c0.291 0.823 0.454 1.93 0.454 3.082s-0.163 2.26-0.454 3.083l-4.425 12.49c-0.047 0.136-0.104 0.243-0.167 0.317s-0.13 0.111-0.198 0.111c-0.068 0-0.135-0.038-0.198-0.111s-0.119-0.181-0.167-0.317c-0.097-0.274-0.151-0.643-0.151-1.028s0.054-0.754 0.151-1.028z"></path>
</symbol>
<symbol id="icon-Vector-rignt" viewBox="0 0 6 32">
<path d="M5.609 29.519l-4.426-12.493c-0.097-0.273-0.152-0.64-0.152-1.024s0.054-0.751 0.152-1.024l4.425-12.495c0.097-0.274 0.151-0.643 0.151-1.028s-0.054-0.754-0.151-1.028c-0.047-0.135-0.104-0.242-0.167-0.316s-0.13-0.111-0.198-0.111c-0.068 0-0.135 0.038-0.198 0.111s-0.119 0.181-0.167 0.316l-4.425 12.49c-0.291 0.823-0.454 1.93-0.454 3.082s0.163 2.26 0.454 3.083l4.425 12.49c0.047 0.136 0.104 0.243 0.167 0.317s0.13 0.111 0.198 0.111c0.068 0 0.135-0.038 0.198-0.111s0.119-0.181 0.167-0.317c0.097-0.274 0.151-0.643 0.151-1.028s-0.054-0.754-0.151-1.028z"></path>
</symbol>
<symbol id="icon-oui_arrow-right-1" viewBox="0 0 32 32">
<path d="M10.314 26.138l9.222-9.37c0.202-0.204 0.316-0.48 0.316-0.768s-0.113-0.564-0.316-0.768l-9.22-9.372c-0.202-0.206-0.315-0.483-0.315-0.771s0.113-0.565 0.315-0.771c0.099-0.101 0.217-0.182 0.347-0.237s0.27-0.083 0.412-0.083c0.141 0 0.282 0.028 0.412 0.083s0.248 0.135 0.347 0.237l9.22 9.368c0.606 0.617 0.945 1.447 0.945 2.312s-0.339 1.695-0.945 2.312l-9.22 9.368c-0.099 0.102-0.217 0.182-0.347 0.237s-0.271 0.084-0.413 0.084-0.282-0.028-0.413-0.084c-0.131-0.055-0.249-0.136-0.347-0.237-0.202-0.206-0.315-0.483-0.315-0.771s0.113-0.565 0.315-0.771z"></path>
</symbol>
<symbol id="icon-oui_arrow-right" viewBox="0 0 32 32">
<path d="M21.686 26.138l-9.222-9.37c-0.202-0.204-0.316-0.48-0.316-0.768s0.113-0.564 0.316-0.768l9.22-9.372c0.202-0.206 0.315-0.483 0.315-0.771s-0.113-0.565-0.315-0.771c-0.099-0.101-0.217-0.182-0.347-0.237s-0.27-0.083-0.412-0.083c-0.142 0-0.282 0.028-0.412 0.083s-0.248 0.135-0.347 0.237l-9.22 9.368c-0.606 0.617-0.945 1.447-0.945 2.312s0.339 1.695 0.945 2.312l9.22 9.368c0.099 0.102 0.217 0.182 0.347 0.237s0.271 0.084 0.413 0.084c0.142 0 0.282-0.028 0.412-0.084s0.249-0.136 0.348-0.237c0.202-0.206 0.315-0.483 0.315-0.771s-0.113-0.565-0.315-0.771z"></path>
</symbol>
<symbol id="icon-arrow_circle_left-1" viewBox="0 0 32 32">
<path d="M15.066 13.467c-0.515-0.515-0.515-1.351 0-1.867s1.351-0.515 1.867 0l3.269 3.269c0.625 0.625 0.625 1.638 0 2.263l-3.269 3.268c-0.516 0.516-1.351 0.516-1.867 0s-0.515-1.351 0-1.867l1.2-1.2h-4.267c-0.736 0-1.333-0.597-1.333-1.333s0.597-1.333 1.333-1.333h4.267l-1.2-1.2z"></path>
</symbol>
<symbol id="icon-add_circle" viewBox="0 0 32 32">
<path d="M18.933 17.333c-0.884 0-1.6 0.716-1.6 1.6v2.4c0 0.736-0.597 1.333-1.333 1.333s-1.333-0.597-1.333-1.333v-2.4c0-0.884-0.716-1.6-1.6-1.6h-2.4c-0.736 0-1.333-0.597-1.333-1.333s0.597-1.333 1.333-1.333h2.4c0.884 0 1.6-0.716 1.6-1.6v-2.4c0-0.736 0.597-1.333 1.333-1.333s1.333 0.597 1.333 1.333v2.4c0 0.884 0.716 1.6 1.6 1.6h2.4c0.736 0 1.333 0.597 1.333 1.333s-0.597 1.333-1.333 1.333h-2.4z"></path>
</symbol>
<symbol id="icon-arrow_circle_left" viewBox="0 0 32 32">
<path d="M16.934 18.533c0.515 0.516 0.515 1.351 0 1.867s-1.351 0.515-1.867 0l-3.269-3.269c-0.625-0.625-0.625-1.638 0-2.263l3.269-3.269c0.515-0.515 1.351-0.515 1.867 0s0.515 1.351 0 1.867l-1.2 1.2h4.267c0.736 0 1.333 0.597 1.333 1.333s-0.597 1.333-1.333 1.333h-4.267l1.2 1.2z"></path>
</symbol>
<symbol id="icon-Email" viewBox="0 0 32 32">
<path stroke-linejoin="round" stroke-linecap="round" stroke-miterlimit="4" stroke-width="2.6667" d="M25.333 6.667h-18.667c-1.473 0-2.667 1.194-2.667 2.667v13.333c0 1.473 1.194 2.667 2.667 2.667h18.667c1.473 0 2.667-1.194 2.667-2.667v-13.333c0-1.473-1.194-2.667-2.667-2.667z"></path>
<path stroke-linejoin="round" stroke-linecap="round" stroke-miterlimit="4" stroke-width="2.6667" d="M4 9.333l12 8 12-8"></path>
</symbol>
<symbol id="icon-Map" viewBox="0 0 32 32">
<path stroke-linejoin="round" stroke-linecap="round" stroke-miterlimit="4" stroke-width="2.6667" d="M24 8v0.013"></path>
<path stroke-linejoin="round" stroke-linecap="round" stroke-miterlimit="4" stroke-width="2.6667" d="M24 17.333l-4.667-6.667c-0.449-0.812-0.679-1.727-0.666-2.655s0.267-1.836 0.739-2.636c0.471-0.799 1.143-1.462 1.949-1.922s1.718-0.702 2.646-0.702c0.928 0 1.84 0.242 2.646 0.702s1.477 1.123 1.949 1.922c0.471 0.799 0.726 1.708 0.739 2.636s-0.217 1.843-0.666 2.655l-4.667 6.667z"></path>
<path stroke-linejoin="round" stroke-linecap="round" stroke-miterlimit="4" stroke-width="2.6667" d="M14 6.333l-2-1-8 4v17.333l8-4 8 4 8-4v-2.667"></path>
<path stroke-linejoin="round" stroke-linecap="round" stroke-miterlimit="4" stroke-width="2.6667" d="M12 5.333v17.333"></path>
<path stroke-linejoin="round" stroke-linecap="round" stroke-miterlimit="4" stroke-width="2.6667" d="M20 20v6.667"></path>
<symbol id="icon-play_circle" viewBox="0 0 35 32">
<path fill="#1c1b1f" style="fill: var(--color1, #1c1b1f)" d="M17.493 28.472c3.638 0 6.72-1.217 9.245-3.651s3.788-5.404 3.788-8.911-1.262-6.477-3.788-8.911c-2.525-2.434-5.607-3.651-9.245-3.651s-6.72 1.217-9.245 3.651c-2.525 2.434-3.788 5.404-3.788 8.911s1.263 6.477 3.788 8.911c2.525 2.434 5.607 3.651 9.245 3.651zM22.733 14.615c0.962 0.596 0.962 1.995 0 2.591l-6.987 4.329c-1.015 0.629-2.326-0.101-2.326-1.295v-8.658c0-1.194 1.311-1.924 2.326-1.295l6.987 4.329z"></path>
<path fill="#1c1b1f" style="fill: var(--color1, #1c1b1f)" d="M11.139 30.375c1.982 0.824 4.1 1.237 6.354 1.237s4.372-0.412 6.354-1.237c1.982-0.824 3.706-1.943 5.173-3.356s2.627-3.075 3.482-4.985c0.855-1.911 1.283-3.952 1.283-6.124s-0.428-4.213-1.283-6.124-2.016-3.572-3.482-4.985c-1.466-1.413-3.19-2.532-5.173-3.356s-4.1-1.237-6.354-1.237c-2.254 0-4.372 0.412-6.354 1.237s-3.706 1.943-5.173 3.356c-1.466 1.413-2.627 3.075-3.482 4.985s-1.283 3.952-1.283 6.124c0 2.172 0.428 4.213 1.283 6.124s2.016 3.572 3.482 4.985 3.19 2.532 5.173 3.356zM26.738 24.821c-2.525 2.434-5.607 3.651-9.245 3.651s-6.72-1.217-9.245-3.651c-2.525-2.434-3.788-5.404-3.788-8.911s1.263-6.477 3.788-8.911c2.525-2.434 5.607-3.651 9.245-3.651s6.72 1.217 9.245 3.651c2.525 2.434 3.788 5.404 3.788 8.911s-1.262 6.477-3.788 8.911z"></path>
<path fill="#fff" style="fill: var(--color2, #fff)" d="M13.42 20.239c0 1.194 1.311 1.924 2.326 1.295l6.987-4.329c0.962-0.596 0.962-1.995 0-2.591l-6.987-4.329c-1.015-0.629-2.326 0.101-2.326 1.295v8.658z"></path>
</symbol>
</symbol>
</defs>
</svg>
